<svg xmlns="http://www.w3.org/2000/svg" viewBox="0 0 64 64">
  <rect width="64" height="64" rx="14" fill="#1f4e79"/>
  <path d="M 8 40 Q 16 34 24 40 Q 32 46 40 40 Q 48 34 56 40 L 56 52 Q 48 58 40 52 Q 32 46 24 52 Q 16 58 8 52 Z" fill="#7ab3d0" opacity="0.9"/>
  <circle cx="32" cy="17" r="5" fill="none" stroke="#f2f2ee" stroke-width="3.4"/>
  <line x1="32" y1="22" x2="32" y2="40" stroke="#f2f2ee" stroke-width="3.4"/>
  <line x1="22" y1="28" x2="42" y2="28" stroke="#f2f2ee" stroke-width="3"/>
  <path d="M 18 34 Q 20 43 32 44 Q 44 43 46 34 L 41 37 Q 40 40 32 40.5 Q 24 40 23 37 Z" fill="#f2f2ee"/>
</svg>
